<?xml version="1.0" encoding="UTF-8" standalone="no"?>
<!DOCTYPE svg PUBLIC "-//W3C//DTD SVG 1.1//EN" "http://www.w3.org/Graphics/SVG/1.1/DTD/svg11.dtd">
<svg xmlns="http://www.w3.org/2000/svg" width="100" height="100" viewBox="0 0 100 100">

	<rect x="12" y="12" width="76" height="76" rx="15" ry="15" fill="#BCBCBC" stroke="black" stroke-width="2"/>

	<rect x="20" y="20" width="30" height="30" rx="8" ry="8" fill="#E8922B" stroke="black" stroke-width="1"/>
	<line x1="28" y1="35" x2="42" y2="35" stroke="white" stroke-width="4" transform="rotate(90 35 35)"/>
	<line x1="35" y1="28" x2="35" y2="42" stroke="white" stroke-width="4" transform="rotate(90 35 35)"/>

	<rect x="50" y="20" width="30" height="30" rx="8" ry="8" fill="#E8922B" stroke="black" stroke-width="1"/>
	<line x1="58" y1="35" x2="72" y2="35" stroke="white" stroke-width="4"/>

	<rect x="20" y="50" width="30" height="30" rx="8" ry="8" fill="#E8922B" stroke="black" stroke-width="1"/>
	<line x1="28" y1="58" x2="42" y2="72" stroke="white" stroke-width="5" />
	<line x1="42" y1="58" x2="28" y2="72" stroke="white" stroke-width="5"/>

	<rect x="50" y="50" width="30" height="30" rx="8" ry="8" fill="#555555" stroke="black" stroke-width="1"/>
	<line x1="58" y1="62" x2="72" y2="62" stroke="white" stroke-width="4"/>
	<line x1="58" y1="68" x2="72" y2="68" stroke="white" stroke-width="4"/>

</svg>